<svg width="19" height="30" viewBox="0 0 19 26" fill="none" xmlns="http://www.w3.org/2000/svg">
<path d="M18.0058 13.3446C18.0306 12.626 17.9777 11.95 17.8583 11.3089C17.675 10.3084 17.3262 9.36561 16.8414 8.51011C16.3862 7.68069 15.8192 6.9032 15.1782 6.15128C14.3112 5.13428 13.3074 4.16228 12.261 3.17166C12.1116 3.03025 11.9614 2.88846 11.8106 2.74609C10.917 1.90278 10.0019 1.03917 9.11808 0.11386L9.1188 0.113138L9.08809 0.0824295C9.08484 0.0790146 9.08158 0.0755966 9.07833 0.0721802L9.07808 0.0724167L9.00566 0L8.89253 0.113138L8.8935 0.114111C8.00974 1.03932 7.09482 1.9028 6.20133 2.74603C6.05047 2.88841 5.90019 3.03024 5.75081 3.17166C4.70442 4.16228 3.70057 5.13428 2.83361 6.15128C2.19259 6.90322 1.62557 7.68075 1.17041 8.5102C0.685634 9.36563 0.33689 10.3083 0.153583 11.3088C0.0340812 11.9499 -0.0188058 12.6259 0.00597601 13.3446L0.0147849 13.3443C0.225647 18.1278 4.17045 21.9411 9.00591 21.9411C13.8414 21.9411 17.7862 18.1278 17.997 13.3443L18.0058 13.3446Z" fill="#B08184"/>
<path fill-rule="evenodd" clip-rule="evenodd" d="M18.0058 12.5966C18.0306 13.3152 17.9777 13.9911 17.8583 14.6322C17.675 15.6328 17.3262 16.5755 16.8414 17.431C16.3862 18.2604 15.8192 19.0379 15.1782 19.7899C15.1197 19.8584 15.0607 19.9268 15.001 19.995L15.006 20L14.9281 20.0778C14.1206 20.9913 13.2082 21.8727 12.261 22.7695C12.1138 22.9089 11.9657 23.0486 11.8171 23.1889L9.00597 26L6.19682 23.1909C6.04747 23.0499 5.89871 22.9095 5.75081 22.7695C4.80324 21.8724 3.89057 20.9906 3.08283 20.0769L3.00597 20L3.0109 19.9951C2.9512 19.9269 2.89209 19.8585 2.83361 19.7899C2.1926 19.0379 1.62557 18.2604 1.17042 17.431C0.685636 16.5755 0.336887 15.6329 0.15358 14.6324C0.0340797 13.9913 -0.0188057 13.3152 0.00597613 12.5966L0.014785 12.5969C0.225648 7.81338 4.17045 4 9.00591 4C13.8414 4 17.7862 7.81338 17.997 12.5969L18.0058 12.5966ZM14.8592 19.8533C14.8786 19.8311 14.898 19.8089 14.9173 19.7866C14.895 19.806 14.8727 19.8252 14.8503 19.8444L14.8592 19.8533ZM3.15263 19.8533C3.13321 19.8311 3.11385 19.8089 3.09456 19.7866C3.11679 19.806 3.13911 19.8253 3.16154 19.8444L3.15263 19.8533Z" fill="#B08184"/>
</svg>
