<svg width="19" height="30" viewBox="0 0 19 23" fill="none" xmlns="http://www.w3.org/2000/svg">
<path fill-rule="evenodd" clip-rule="evenodd" d="M18.054 8.61954C18.0789 9.34006 18.0258 10.0179 17.906 10.6606C17.7222 11.6639 17.3725 12.6092 16.8864 13.4669C16.43 14.2986 15.8615 15.0782 15.2188 15.8321C15.1602 15.9008 15.1009 15.9694 15.0411 16.0378L15.0461 16.0428L14.968 16.1208C14.1584 17.0367 13.2436 17.9205 12.2938 18.8197C12.1462 18.9594 11.9977 19.0995 11.8487 19.2402L9.03006 22.0588L6.2134 19.2422C6.06364 19.1008 5.91449 18.9601 5.76619 18.8197C4.81609 17.9202 3.90097 17.0361 3.09108 16.1198L3.01401 16.0428L3.01895 16.0378C2.95909 15.9695 2.89983 15.9009 2.84119 15.8321C2.19846 15.0781 1.62992 14.2985 1.17355 13.4669C0.68747 12.6092 0.337788 11.664 0.153991 10.6608C0.0341709 10.018 -0.018856 9.34012 0.00599211 8.61954L0.0148246 8.61985C0.226251 3.82358 4.1816 0 9.03 0C13.8784 0 17.8337 3.82358 18.0452 8.61985L18.054 8.61954ZM14.899 15.8957C14.9184 15.8734 14.9378 15.8511 14.9572 15.8288C14.9349 15.8483 14.9125 15.8676 14.8901 15.8868L14.899 15.8957ZM3.16106 15.8957C3.14159 15.8735 3.12218 15.8512 3.10284 15.8288C3.12513 15.8483 3.14751 15.8676 3.16999 15.8868L3.16106 15.8957Z" fill="#B08184"/>
</svg>
