<svg width="19" height="30" viewBox="0 0 19 22" fill="none" xmlns="http://www.w3.org/2000/svg">
<path d="M18.0542 13.3804C18.079 12.6599 18.026 11.9821 17.9062 11.3393C17.7224 10.336 17.3727 9.39073 16.8866 8.53294C16.4302 7.7013 15.8617 6.92171 15.219 6.16778C14.3497 5.14806 13.3431 4.17344 12.2939 3.18017C12.1442 3.03838 11.9935 2.89621 11.8423 2.75346C10.9463 1.90789 10.0288 1.04196 9.14257 0.114165L9.14329 0.113441L9.1125 0.0826506C9.10923 0.0792266 9.10597 0.0757994 9.10271 0.0723738L9.10246 0.072611L9.02985 0L8.91641 0.113441L8.91738 0.114417C8.03125 1.04211 7.11387 1.9079 6.21799 2.7534C6.06672 2.89615 5.91604 3.03837 5.76625 3.18017C4.71705 4.17344 3.71051 5.14806 2.84122 6.16778C2.19848 6.92174 1.62993 7.70136 1.17356 8.53303C0.687475 9.39075 0.337795 10.3359 0.153996 11.3391C0.0341727 11.9819 -0.0188563 12.6598 0.00599206 13.3804L0.0148246 13.3801C0.226253 18.1764 4.18165 22 9.0301 22C13.8785 22 17.8339 18.1764 18.0454 13.3801L18.0542 13.3804Z" fill="#B08184"/>
</svg>